<svg width="131" height="31" viewBox="0 0 131 31" fill="none" xmlns="http://www.w3.org/2000/svg">
<g clip-path="url(#clip0_14_664)">
<path d="M120.566 21.1507C120.677 21.4653 120.339 21.2717 120.173 21.2172C119.519 20.947 118.901 20.6018 118.329 20.1887C117.226 19.4464 116.035 18.8371 114.784 18.3737C113.587 18.0546 112.457 17.5281 111.447 16.8189C111.216 16.6818 110.968 16.5741 110.71 16.4982C110.641 16.4655 110.564 16.4526 110.488 16.4612C110.412 16.4698 110.34 16.4994 110.28 16.5466C110.258 16.5744 110.243 16.6066 110.236 16.6408C110.229 16.675 110.23 16.7104 110.239 16.7442C110.248 16.7781 110.264 16.8095 110.287 16.836C110.311 16.8626 110.339 16.8836 110.372 16.8975C110.986 17.2787 110.986 17.7869 111.361 18.2467C111.032 18.1406 110.709 18.0133 110.397 17.8655C109.665 17.6114 108.885 17.2121 108.197 17.2605C107.279 17.3345 106.357 17.1935 105.505 16.8491C104.541 16.4825 103.484 16.4212 102.482 16.6737C102.101 16.7644 100.368 16.4075 100.227 16.1473C99.932 15.6089 99.4466 15.5787 98.8813 15.5424C98.2825 15.497 97.692 15.3771 97.1239 15.1854C95.8943 14.8066 94.631 14.5433 93.351 14.3989C92.9667 14.358 92.5851 14.2954 92.2081 14.2114C90.6903 13.8242 89.105 13.7213 87.6241 13.1889C87.2547 13.0734 86.8618 13.0506 86.4812 13.1224C86.193 13.1769 85.8968 13.1769 85.6086 13.1224C84.444 12.8612 83.251 12.7433 82.0569 12.7715C80.7973 12.7715 79.4761 12.5416 78.3271 12.9167C78.9415 13.074 79.7096 13.1587 79.8264 13.8181L78.5422 13.7395C78.0137 13.7032 77.5221 13.6669 77.5651 13.1345C77.5674 13.0806 77.5577 13.027 77.5367 12.9772C77.5156 12.9275 77.4838 12.8829 77.4433 12.8466C77.4029 12.8103 77.355 12.7831 77.3027 12.767C77.2505 12.7509 77.1954 12.7462 77.1411 12.7533C76.8093 12.7533 76.5881 12.9046 76.6557 13.1587C76.7725 13.5943 76.2317 13.5277 76.0781 13.3946C75.6357 13.0135 75.2486 13.2252 74.8492 13.3402C74.5455 13.4572 74.2228 13.5187 73.8967 13.5217C72.3237 13.4067 70.8244 13.8181 69.2943 13.8968C70.2283 14.2598 71.1377 14.5986 72.2192 14.2174C72.6149 14.0847 73.0301 14.0173 73.4481 14.0178C75.7893 14.0178 78.1305 14.0904 80.4655 14.2537C80.6337 14.2588 80.8007 14.2831 80.9632 14.3263C82.1572 14.6972 83.3984 14.9009 84.65 14.9313C85.071 14.9041 85.4925 14.9767 85.879 15.1431C84.8098 15.5605 83.7652 15.2096 82.7513 15.1431C81.633 15.0644 80.5023 14.9858 79.384 15.016C78.2466 14.9579 77.1061 15.0126 75.9798 15.1794L78.0137 15.4516C77.553 15.5593 77.0798 15.6061 76.6065 15.5908C75.7401 15.494 74.8676 15.4637 73.995 15.4456C73.5065 15.3692 73.0088 15.3692 72.5203 15.4456C71.6987 15.6665 70.8525 15.7864 70.0009 15.8025C69.3865 15.869 68.8396 15.742 68.2927 15.8025C66.3448 16.0989 64.3047 15.9658 62.3999 16.4982C62.2022 16.5637 61.9935 16.5904 61.7854 16.5769C60.7777 16.468 59.8191 16.837 58.8236 16.8431C58.4488 16.8431 57.7421 16.8431 58.2829 17.3936C58.3996 17.5025 58.203 17.5812 58.0555 17.6477C57.6397 17.8272 57.1882 17.912 56.7344 17.8958C56.12 17.8958 56.0462 17.7385 56.378 17.2C55.8742 17.2545 55.0938 17.1395 55.1061 17.5691C55.1061 18.1741 54.7251 18.1741 54.1536 18.2709C53.6159 18.439 53.0331 18.3979 52.5253 18.1559C51.837 17.6719 51.5544 17.6659 50.6818 17.926C49.8093 18.1862 49.1026 18.531 48.144 18.3616C47.7631 18.283 47.1056 18.3616 46.952 18.8638C46.8659 19.1481 46.5587 19.257 46.2146 19.3175L44.3712 19.62C44.7829 19.1965 44.8689 18.9122 44.1069 19.015C43.5694 19.0279 43.0352 19.1031 42.5155 19.2389C41.8778 19.4381 41.227 19.5938 40.5676 19.7047C38.4907 20.0859 36.4076 20.4549 34.5334 20.8663C35.8054 20.3944 37.3907 20.2613 38.7979 19.5777C37.6058 20.1101 36.383 19.9346 35.1909 20.1827C36.1925 19.9044 37.2248 19.6987 38.2633 19.4688C38.7303 19.378 39.056 19.2449 38.5152 18.9727C38.4476 18.9364 38.4784 18.8154 38.4476 18.6762C39.9136 18.5723 41.3585 18.2731 42.7428 17.7869C42.5382 17.6131 42.2832 17.5073 42.014 17.4845C41.7448 17.4617 41.4752 17.523 41.2435 17.6598C40.3894 18.0833 39.271 17.9079 38.4415 18.4766C38.3481 18.5297 38.2421 18.5576 38.1342 18.5576C38.0264 18.5576 37.9204 18.5297 37.827 18.4766C37.7083 18.4456 37.5842 18.4404 37.4633 18.4613C37.3423 18.4822 37.2274 18.5287 37.1265 18.5976C36.2539 19.0332 35.32 18.888 34.4228 19.0271C34.3543 19.0469 34.2808 19.0404 34.217 19.009C34.1531 18.9775 34.1038 18.9235 34.0787 18.8577C34.0787 18.7246 34.22 18.6399 34.3921 18.5976L37.4645 17.8776C38.3309 17.6719 39.271 17.6175 40.0145 17.1093C38.632 17.1758 37.36 17.9018 35.8975 17.92C36.2294 17.4239 37.0528 16.9338 35.7931 16.8794C35.916 16.71 36.0819 16.4377 35.7071 16.4922C34.8161 16.6253 34.0111 16.2744 33.0894 16.6737C32.7945 16.8175 32.4593 16.8601 32.137 16.7947C32.137 16.3954 32.9481 16.5769 33.0157 16.0989C31.1722 16.5103 29.3657 16.6616 27.5407 17.0306C28.3825 16.4619 29.7589 16.4982 30.2444 15.494C29.657 15.4849 29.072 15.5686 28.5116 15.742C26.5514 16.4861 24.5113 16.952 22.5143 17.557C21.5987 17.805 20.6709 18.2951 19.7676 18.3374C18.876 18.4874 18.0136 18.7732 17.2114 19.1844C16.8112 19.3788 16.401 19.5525 15.9824 19.7047C13.9485 20.1766 12.4246 21.6347 10.5689 22.4454C10.5313 22.4678 10.4963 22.4942 10.4644 22.524C9.4751 23.2319 8.47967 23.9457 7.5641 24.7383C6.18153 25.9483 4.62692 26.9405 3.34881 28.2594C2.36941 29.3528 1.21797 30.2843 -0.0615234 31.0182C1.11827 29.9836 1.94164 28.9793 2.94938 28.1384C4.22625 26.8744 5.60743 25.7169 7.07868 24.6778C7.14935 24.6383 7.20817 24.5812 7.24917 24.5121C7.29018 24.443 7.31192 24.3645 7.31218 24.2845C7.31218 24.1333 7.14627 24.1393 6.96193 24.2301C6.77758 24.3208 6.43962 24.5205 6.34745 24.3087C6.25528 24.097 6.55637 23.8671 6.80831 23.7037C7.73002 23.0504 8.69473 22.4938 9.63488 21.8888C12.5966 20.0738 15.7796 18.6762 18.9134 17.194C20.7569 16.347 22.5634 15.5242 24.4437 14.8285C25.1847 14.6138 25.8728 14.2514 26.4654 13.7637C24.8985 14.1085 23.5589 14.7438 22.164 14.8406C22.7048 14.6349 23.1103 14.29 23.608 14.0904C24.1484 13.8737 24.7215 13.7469 25.304 13.7153C25.5375 13.7153 25.7464 13.5277 25.7526 13.3644C25.7526 12.7594 26.4654 12.5416 27.1044 12.3177C27.6144 12.1362 28.1552 12.0092 28.6775 11.87C29.335 11.6946 29.974 11.5312 30.2628 10.9746C30.4226 10.6721 30.8773 10.6056 31.3013 10.4906C32.0947 10.3283 32.8705 10.0912 33.6179 9.78279C34.2815 9.43189 35.025 9.12334 35.8054 8.68775L35.0987 8.77244C34.2139 8.85109 34.22 8.81479 34.3614 8.2098C34.4351 7.8952 34.8222 7.85285 35.0557 7.6895C35.2892 7.52615 35.3445 7.508 35.2769 7.38701C35.2093 7.26601 35.025 7.31441 34.8407 7.33256C32.5541 7.6169 30.3047 8.14014 28.1306 8.89344C26.0475 9.49844 24.0013 10.3212 21.7953 11.1985C23.0243 10.2063 24.7202 9.98849 25.6481 8.99629C25.8327 8.8728 26.0424 8.79023 26.2626 8.7543C28.3149 8.20375 30.2505 7.4475 32.2291 6.83041C34.2319 6.31519 36.2018 5.68285 38.1281 4.93677C39.4554 4.36202 41.053 4.21077 42.5093 3.79333C43.2405 3.57553 44.0639 3.56948 44.7337 3.18833C45.0363 3.08014 45.3608 3.04487 45.68 3.08548C46.7861 3.01288 47.9843 3.04313 48.9675 2.62568C50.3009 2.02069 51.9538 2.62569 53.152 1.76659C53.2823 1.74581 53.4151 1.74581 53.5453 1.76659C54.1895 1.82745 54.8393 1.79688 55.4747 1.67584C57.5762 1.35519 59.7761 1.58509 61.8346 0.955896C62.0066 0.901447 62.2831 1.01034 62.5166 1.00429C63.8623 1.00429 65.1527 1.31284 66.5783 1.0648C67.2196 0.961191 67.8754 0.983811 68.5078 1.13135C69.102 1.25239 69.7126 1.27488 70.3143 1.1979C71.9923 1.09606 73.676 1.13654 75.3469 1.31889C77.602 1.46409 79.8694 1.79684 82.1061 2.10539C84.6193 2.45024 87.1448 2.83139 89.658 3.31538C89.6211 3.57553 89.3016 3.50898 88.9452 3.47268C88.1587 3.40008 87.5012 3.03708 86.727 2.95843C83.8574 2.68619 81.0369 2.20824 78.1796 2.02069C77.5199 1.96545 76.8559 1.98575 76.201 2.08119C76.9545 2.34108 77.7503 2.46208 78.5483 2.43814C79.3073 2.41383 80.0657 2.50359 80.7973 2.70433C81.6229 2.90654 82.4631 3.0461 83.3105 3.12178C85.3927 3.34685 87.4591 3.69638 89.4983 4.16843C91.8025 4.71292 93.9409 5.63857 96.2944 6.11046C96.3497 6.11046 96.3988 6.20726 96.4602 6.27381C96.282 6.33431 96.0916 6.38271 95.9257 6.45531C95.6614 6.57631 95.0838 6.45531 95.2006 6.88486C95.3173 7.3144 95.7782 7.4112 96.2083 7.48985C98.8629 8.14325 101.173 9.48634 103.748 10.3333C103.963 10.4059 104.129 10.539 103.981 10.7084L99.4282 9.31694C98.3566 8.88929 97.2254 8.62411 96.0731 8.53045C95.7057 8.49962 95.3514 8.38127 95.0408 8.1856C94.811 8.03818 94.5507 7.9431 94.2789 7.9073C93.0907 7.74776 91.9145 7.5113 90.7579 7.19946C90.5927 7.13287 90.4135 7.10689 90.2358 7.12375C90.058 7.14062 89.8872 7.19982 89.7379 7.29625C89.9714 7.629 90.3524 7.63505 90.7211 7.7137C92.4293 8.1009 94.1375 8.48205 95.8027 9.00234C96.7454 9.30068 97.6706 9.65009 98.574 10.049C99.7354 10.539 101.001 10.9746 102.261 11.4163C103.004 11.6489 103.732 11.9237 104.442 12.2391C107.386 13.564 110.372 14.8043 113.26 16.2502C113.942 16.6071 114.624 17.1032 115.448 17.1032C115.574 17.1443 115.694 17.2034 115.804 17.2787L119.835 19.5172C120.438 19.8089 120.995 20.186 121.488 20.6364C121.058 20.8119 120.314 20.461 120.566 21.1507ZM43.6215 16.4377C43.2713 16.1776 42.9702 16.3591 42.5953 16.6192C42.7645 16.6971 42.9539 16.7215 43.1377 16.689C43.3215 16.6565 43.4905 16.5687 43.6215 16.4377V16.4377ZM39.8118 6.08021C40.6966 6.37061 41.4831 5.95921 42.2697 5.77166C41.8595 5.66139 41.4313 5.63189 41.0095 5.68483C40.5877 5.73778 40.1807 5.87214 39.8118 6.08021V6.08021ZM44.1131 17.3694C43.941 17.6598 44.5801 17.7324 44.3527 18.0652C44.2729 18.1862 44.5555 18.2709 44.7829 18.2164C45.0102 18.162 45.2868 17.9986 45.213 17.926C44.746 17.4844 45.3973 17.5086 45.6984 17.321C45.9995 17.1335 46.4297 17.1093 46.4358 16.7765C45.6571 16.9229 44.8893 17.1209 44.1377 17.3694H44.1131ZM46.7123 15.8509C46.6358 15.8381 46.5571 15.8486 46.4869 15.8811C46.4166 15.9135 46.358 15.9663 46.3191 16.0324C46.2515 16.1655 46.3621 16.2381 46.571 16.2139C46.7799 16.1897 46.8782 16.1352 46.9151 16.0203C46.952 15.9053 46.8475 15.869 46.7369 15.8509H46.7123ZM48.3653 16.4014C47.8798 16.2804 47.376 16.1171 46.9643 16.6071C46.9016 16.6813 46.8207 16.7386 46.7293 16.7735C46.638 16.8084 46.5391 16.8199 46.442 16.8068C47.0313 17.0403 47.6871 17.0532 48.2854 16.8431C48.385 16.8071 48.4723 16.7442 48.5373 16.6616C48.6725 16.5224 48.5373 16.4377 48.3898 16.4014H48.3653ZM54.7312 15.6936C55.5301 15.5666 56.2613 15.9295 56.8327 15.3306C56.4928 15.1636 56.1073 15.1088 55.7333 15.1741C55.3593 15.2395 55.0166 15.4216 54.7558 15.6936H54.7312ZM62.3016 14.6349C64.3171 14.6349 67.6721 14.4231 68.5078 14.1388C66.4338 14.0213 64.3534 14.1883 62.3261 14.6349H62.3016ZM72.9566 12.6686C72.7845 12.6686 72.6186 12.6686 72.6125 12.8138C72.6063 12.959 72.7231 12.959 72.8521 12.9651C72.9811 12.9711 73.1901 12.9651 73.1962 12.8259C73.2024 12.6868 73.1163 12.6807 72.9812 12.6686H72.9566Z" fill="#ED5C01"/>
<path d="M97.8618 17.7204C95.533 17.1154 93.1488 16.8008 90.8076 16.2321V16.0143C93.1979 16.3954 95.5575 16.9218 97.9048 17.4965L97.8618 17.7204Z" fill="#ED5C01"/>
<path d="M119.043 21.2898C119.172 21.3987 119.362 21.4955 119.307 21.6347C119.252 21.7738 118.944 21.7738 118.803 21.677C117.845 21.0236 116.671 20.6304 115.768 19.5958C116.984 19.8861 118.109 20.468 119.043 21.2898V21.2898Z" fill="#ED5C01"/>
<path d="M85.707 13.9875C87.1633 13.7032 88.2387 14.5502 89.6397 14.7075C87.8393 14.9192 86.7332 14.7014 85.707 13.9875Z" fill="#ED5C01"/>
<path d="M34.7544 17.1335C33.7774 17.8111 33.7897 17.8051 32.6406 17.2243C33.4825 16.8613 34.226 16.5769 34.7544 17.1335Z" fill="#ED5C01"/>
<path d="M84.2381 1.78474C83.4662 1.67048 82.7162 1.44204 82.0137 1.10715C82.8056 1.00516 83.6106 1.07327 84.3733 1.3068C84.6314 1.3794 84.7911 1.48225 84.6867 1.65165C84.6325 1.71354 84.5615 1.75893 84.4821 1.7825C84.4026 1.80608 84.318 1.80686 84.2381 1.78474Z" fill="#ED5C01"/>
<path d="M48.7154 18.8577C49.2869 18.4403 49.9444 18.646 50.8169 18.525C50.2025 19.13 49.4897 19.0574 48.9735 19.3236C48.8853 19.3614 48.7874 19.3718 48.693 19.3534C48.5986 19.335 48.5121 19.2888 48.4451 19.2207C48.3283 19.0574 48.5802 18.9606 48.7154 18.8577Z" fill="#ED5C01"/>
<path d="M125.322 23.613C126.187 24.095 126.876 24.8341 127.289 25.7244C126.269 25.2767 125.875 24.5023 125.322 23.613Z" fill="#ED5C01"/>
<path d="M74.4192 16.111C74.8985 15.984 75.4147 16.232 75.8632 16.0384C75.8018 16.3107 75.4823 16.2683 75.2119 16.2986C75.1136 16.2986 74.9292 16.2441 74.9354 16.3591C74.9415 16.474 75.4208 16.3591 75.1627 16.589C74.9838 16.6694 74.7875 16.7047 74.5913 16.6918H73.3623C73.9583 16.7039 73.9768 16.2199 74.4192 16.111Z" fill="#ED5C01"/>
<path d="M121.961 21.066C122.575 21.5863 123.503 21.8706 123.731 22.6813C122.625 22.4696 122.582 21.5802 121.961 21.066Z" fill="#ED5C01"/>
<path d="M94.5371 3.80542C95.4957 4.07767 96.5403 4.18657 97.376 4.76132C96.3252 4.65242 95.5326 4.05347 94.5371 3.80542Z" fill="#ED5C01"/>
<path d="M34.2451 22.0945L36.0148 21.6831C35.4507 21.9116 34.8534 22.0504 34.2451 22.0945Z" fill="#ED5C01"/>
<path d="M36.8196 21.5076L36.1621 21.6467L36.0146 21.683C36.276 21.5968 36.5458 21.538 36.8196 21.5076V21.5076Z" fill="#ED5C01"/>
<path d="M60.5631 17.0185C60.9748 17.0185 61.4602 16.8975 61.8351 17.2605L60.6553 17.5086C60.4771 17.5449 60.348 17.5086 60.3173 17.3513C60.2866 17.194 60.2927 17.0246 60.5631 17.0185Z" fill="#ED5C01"/>
<path d="M54.0557 0.998287C54.7646 0.73441 55.5254 0.633027 56.2801 0.701838C55.5952 1.04918 54.8097 1.15386 54.0557 0.998287V0.998287Z" fill="#ED5C01"/>
<path d="M25.869 17.6477C25.1329 18.0946 24.2742 18.3059 23.4111 18.2527C24.1805 17.8897 25.0166 17.6839 25.869 17.6477Z" fill="#ED5C01"/>
<path d="M82.0693 13.7758C82.3818 13.632 82.7313 13.5851 83.0715 13.6413C83.4117 13.6975 83.7265 13.8541 83.9742 14.0904C83.2983 13.9452 82.6347 14.1206 82.0693 13.7758Z" fill="#ED5C01"/>
<path d="M88.6257 16.347C88.0041 16.4605 87.3622 16.3889 86.7822 16.1413C87.3906 16.2683 88.0112 16.0021 88.6257 16.347Z" fill="#ED5C01"/>
<path d="M75.8633 16.0449V16.0384L75.8823 16.0449H75.8633Z" fill="#ED5C01"/>
<path d="M78.6654 16.3652C77.7267 16.3838 76.7898 16.2739 75.8818 16.0385C76.8035 16.1897 77.7683 15.9114 78.6654 16.3652Z" fill="#ED5C01"/>
<path d="M47.8247 2.00859L46.5957 2.18403C46.8743 1.8958 47.2267 1.6868 47.6157 1.57904C47.7099 1.54334 47.8138 1.54135 47.9092 1.57342C48.0047 1.60549 48.0857 1.66958 48.138 1.75449C48.1933 1.87549 47.9967 1.97834 47.8247 2.00859Z" fill="#ED5C01"/>
<path d="M75.31 0.405349C74.6955 0.290399 73.9213 0.459797 73.1348 0C74.0442 0.0604996 74.7385 0.0121011 75.31 0.405349Z" fill="#ED5C01"/>
<path d="M78.2412 0.465847C78.8926 0.496097 79.335 0.375099 79.6483 0.707846C79.7221 0.786496 79.7344 0.913545 79.5869 0.925645C79.3424 0.945729 79.0964 0.915193 78.8646 0.836003C78.6328 0.756813 78.4205 0.630721 78.2412 0.465847V0.465847Z" fill="#ED5C01"/>
<path d="M88.0793 2.4926C87.5324 2.54705 87.4648 2.2385 87.0654 1.96021C87.6799 1.96021 88.1223 1.96021 88.3435 2.25665C88.4234 2.3716 88.2145 2.4805 88.0793 2.4926Z" fill="#ED5C01"/>
<path d="M12.9834 14.1569C13.3302 13.7756 13.8163 13.545 14.3353 13.5156C13.9675 13.8685 13.4929 14.0937 12.9834 14.1569Z" fill="#ED5C01"/>
<path d="M71.5061 16.2381C71.629 16.2744 71.6659 16.3288 71.6167 16.4317C71.5643 16.5636 71.4622 16.6705 71.3318 16.7302C71.2013 16.79 71.0525 16.7979 70.9162 16.7523L70.5537 16.6797C70.7196 16.6011 70.8179 16.5769 70.8363 16.5345C70.8595 16.471 70.8954 16.4127 70.942 16.3632C70.9885 16.3136 71.0448 16.2738 71.1073 16.2462C71.1698 16.2185 71.2373 16.2035 71.3059 16.2021C71.3744 16.2007 71.4425 16.213 71.5061 16.2381V16.2381Z" fill="#ED5C01"/>
<path d="M54.4176 21.3081C53.9941 21.4119 53.5561 21.4466 53.1211 21.4109C53.5328 21.3807 53.883 21.06 54.4176 21.3081Z" fill="#ED5C01"/>
<path d="M66.3203 18.6581L67.4202 18.5915C67.2548 18.6861 67.0692 18.7414 66.8783 18.753C66.6873 18.7645 66.4963 18.732 66.3203 18.6581Z" fill="#ED5C01"/>
<path d="M42.4292 20.3703C41.9253 20.5639 41.5198 20.5941 41.1572 20.7272C41.5218 20.4574 41.975 20.3302 42.4292 20.3703V20.3703Z" fill="#ED5C01"/>
<path d="M130.066 27.249C130.398 27.5031 130.853 27.6423 131 28.09C130.552 27.9085 130.355 27.5273 130.066 27.249Z" fill="#ED5C01"/>
<path d="M63.5615 20.0496C63.3578 20.1595 63.1339 20.2284 62.9029 20.2523C62.6718 20.2762 62.4383 20.2546 62.2158 20.1887C62.6385 20.0047 63.1092 19.956 63.5615 20.0496Z" fill="#ED5C01"/>
<path d="M20.2041 11.8519C20.0737 11.8912 19.94 11.9196 19.8047 11.9366C19.8354 11.8882 19.8416 11.8458 19.8723 11.8398C20.1199 11.7226 20.3768 11.6255 20.6404 11.5494C20.8002 11.5131 20.7756 11.4405 20.7449 11.5494C20.7141 11.6583 20.4069 11.7732 20.2041 11.8519Z" fill="#ED5C01"/>
<path d="M86.0261 2.00857C85.9514 2.00299 85.8812 1.97124 85.8282 1.91908C85.7752 1.86691 85.743 1.79778 85.7373 1.72422C85.7373 1.62137 85.8479 1.57902 86.0138 1.59112C86.1797 1.60322 86.4071 1.71212 86.4009 1.83917C86.3948 1.96622 86.2105 2.05697 86.0261 2.00857Z" fill="#ED5C01"/>
<path d="M92.4421 3.3214C92.2148 3.3698 92.1226 3.24275 91.9936 3.17015C91.8645 3.09755 91.9567 3.0431 92.0919 3.07335C92.303 3.09792 92.5098 3.15084 92.7063 3.23065C92.8046 3.26695 92.5589 3.2972 92.4421 3.3214Z" fill="#ED5C01"/>
<path d="M26.803 11.3982C26.6173 11.5043 26.4013 11.5468 26.1885 11.5192C26.3608 11.3767 26.578 11.2976 26.803 11.2953C26.9136 11.2893 26.9197 11.3558 26.803 11.3982Z" fill="#ED5C01"/>
<path d="M77.3744 18.3254C77.2727 18.3732 77.1615 18.398 77.0488 18.398C76.9361 18.398 76.8248 18.3732 76.7231 18.3254C76.6371 18.283 76.6432 18.2407 76.7538 18.2225C76.856 18.1772 76.9695 18.1627 77.08 18.1811C77.1905 18.1994 77.293 18.2496 77.3744 18.3254V18.3254Z" fill="#ED5C01"/>
<path d="M56.3599 20.9632L55.6533 21.0297C55.7496 20.948 55.8693 20.8977 55.9959 20.8858C56.1225 20.8739 56.2496 20.9009 56.3599 20.9632V20.9632Z" fill="#ED5C01"/>
<path d="M46.3928 22.6874C46.3928 22.7176 46.2699 22.7479 46.1901 22.7781C46.1102 22.8084 45.8951 22.7781 45.8828 22.6148C45.9474 22.5783 46.0182 22.5537 46.0918 22.5422C46.2515 22.524 46.4297 22.5301 46.3928 22.6874Z" fill="#ED5C01"/>
<path d="M59.6412 19.4627C59.52 19.5386 59.3793 19.5789 59.2357 19.5789C59.092 19.5789 58.9513 19.5386 58.8301 19.4627C59.0882 19.4143 59.3647 19.251 59.6412 19.4627Z" fill="#ED5C01"/>
<path d="M20.665 10.8839C20.7164 10.817 20.7812 10.7614 20.8555 10.7205C21.0337 10.6419 21.3778 10.4483 21.3532 10.6479C21.3287 10.8476 20.9416 10.902 20.665 10.8839Z" fill="#ED5C01"/>
<path d="M98.611 5.16667C98.6417 5.06987 98.8138 5.16667 98.9428 5.16667C99.0719 5.16667 99.2316 5.25742 99.1025 5.35422C99.0314 5.38126 98.9525 5.38126 98.8813 5.35422C98.7707 5.31792 98.5987 5.20902 98.611 5.16667Z" fill="#ED5C01"/>
</g>
<defs>
<clipPath id="clip0_14_664">
<rect width="131" height="31" fill="white"/>
</clipPath>
</defs>
</svg>
