<svg width="63" height="46" viewBox="0 0 63 46" fill="none" xmlns="http://www.w3.org/2000/svg">
<path d="M11.886 38.0783C13.9382 24.4227 25.0539 13.302 36.3596 13.304C36.4253 13.6525 36.5724 14.0921 36.4647 14.4301C34.6352 20.1752 37.0589 24.6299 40.9923 28.574C44.0198 31.6875 47.5173 34.2268 51.6999 35.516C52.8972 35.8475 54.0944 36.1791 55.3941 36.2585C60.1543 36.6356 62.6615 34.0326 62.4301 29.2813C62.2776 26.0851 60.8753 23.4154 58.9374 20.9714C55.6315 16.7212 51.3044 13.5283 46.2211 11.3227C45.2023 10.9159 44.1836 10.5091 42.7421 9.90425C47.6856 4.43557 54.3702 3.20762 60.7659 1.01457C59.6396 0.945725 58.5237 0.705262 57.3868 0.808043C51.503 1.74041 45.9999 3.55737 41.5788 7.59373C40.2924 8.72095 39.1135 9.51022 37.2074 9.39372C29.8374 9.02941 23.6597 11.9248 18.4772 17.0344C14.5916 20.8451 11.6225 25.3147 9.57492 30.3575C9.06303 31.6182 8.55114 32.8788 7.64548 34.8906C5.27692 30.9561 3.22346 27.5576 1.17001 24.1591C0.904829 24.229 0.634406 24.3848 0.369229 24.4547C0.240629 25.1359 -0.0717468 25.9781 0.151474 26.5947C1.18618 29.5864 2.22088 32.5781 3.43412 35.4946C4.57644 38.1483 5.8973 40.7269 7.03963 43.3806C8.1872 45.9486 9.53679 46.634 11.3089 44.6751C14.3832 41.3316 17.1266 37.7095 19.9567 34.0927C20.3347 33.599 20.0458 32.6339 20.0064 31.8563C19.1295 31.975 18.0083 31.8203 17.457 32.3034C15.5221 34.0801 13.9285 35.9637 11.886 38.0783ZM39.9225 13.3494C48.3245 15.3272 54.6682 19.6769 58.4575 27.402C59.2243 29.0853 59.7915 31.1872 58.1533 32.379C57.0611 33.1736 54.9712 33.2181 53.5087 32.9565C47.9293 31.7541 43.7859 28.4002 40.4038 23.973C38.0747 20.8161 37.4942 17.5076 39.9225 13.3494Z" fill="#189CAB"/>
</svg>
