<svg width="84" height="182" viewBox="0 0 84 182" fill="none" xmlns="http://www.w3.org/2000/svg">
<path d="M35.8027 44.4158C31.7484 53.6945 28.2793 63.5235 22.5116 71.8379C21.7823 72.882 20.0233 72.2997 20.3882 70.933C22.9217 61.023 28.0833 51.8149 32.5195 42.5819C33.5576 40.3814 36.7741 42.2538 35.8027 44.4158Z" fill="#ED5C01"/>
<path d="M44.8466 76.3384C44.7332 80.1373 44.1046 83.9675 42.9119 87.5908C41.8596 90.6884 40.4494 94.7041 37.6732 96.6658C36.2851 97.6466 34.7401 96.0515 34.9614 94.5902C35.4705 91.6291 37.7844 88.8683 38.7806 85.9809C39.8996 82.8447 40.598 79.5962 40.8094 76.274C40.9679 73.7823 44.9666 73.7801 44.8466 76.3384Z" fill="#ED5C01"/>
<path d="M33.3129 112.788C34.3532 114.587 31.556 116.205 30.5158 114.407C29.4755 112.608 32.2726 110.99 33.3129 112.788Z" fill="#ED5C01"/>
<path d="M63.7701 90.4568C62.2934 94.5111 60.7501 98.6039 59.1682 102.63C58.5369 104.151 56.0524 103.544 56.6452 101.956C58.0834 97.8355 59.7038 93.8759 61.2471 89.7831C61.8399 88.1958 64.3629 88.8695 63.7701 90.4568Z" fill="#ED5C01"/>
<path d="M58.7177 120.135C56.488 122.581 55.2254 125.622 52.9572 128.001C52.0177 128.989 50.1815 128.274 50.1645 126.861C50.3164 123.129 53.1036 119.65 55.5331 117.089C57.5453 115.036 60.5582 118.093 58.7177 120.135Z" fill="#ED5C01"/>
<path d="M59.7898 48.8502C59.6588 52.9259 60.0815 57.0368 58.307 60.73C57.9388 61.4764 56.8209 61.2342 56.5688 60.4912C55.3365 56.6708 56.3366 52.7145 56.6497 48.8001C56.9167 46.9568 59.8745 46.8456 59.7898 48.8502Z" fill="#ED5C01"/>
<path d="M13.7657 173.34C12.486 174.969 11.2063 176.599 9.99322 178.189C9.41475 178.879 8.92379 179.875 8.20166 180.47C7.47954 181.066 6.5367 181.433 5.80412 181.857C5.13814 182.242 4.13256 181.58 4.39565 180.805C4.72534 179.992 4.87285 179.018 5.30766 178.233C5.80908 177.41 6.5978 176.776 7.24287 176.047C8.69427 174.407 10.1842 172.834 11.6356 171.195C12.9257 169.737 14.9507 171.855 13.7657 173.34Z" fill="#ED5C01"/>
<path d="M70.4342 15.3152C70.2338 17.12 69.9949 18.8581 69.5458 20.5401C69.2827 21.3146 68.5606 21.9101 67.7686 21.9238C67.0432 21.8991 66.1146 21.3696 65.9957 20.5495C65.8383 19.6628 65.6809 18.7761 65.6952 17.879C65.748 17.0484 65.6958 16.1898 65.7486 15.3592C65.742 14.1186 66.8428 12.9485 68.1219 13.0085C69.2574 12.9738 70.6659 14.0256 70.4342 15.3152Z" fill="#ED5C01"/>
<path d="M83.7336 29.3975C83.5751 31.8891 83.4166 34.3808 83.1915 36.911C83.012 39.0592 83.1584 41.4633 82.2431 43.4151C81.696 44.6204 79.9089 44.1432 79.5693 43.0953C78.9952 41.0274 79.364 38.5919 79.5434 36.4437C79.6739 34.0572 79.8428 31.7372 79.9733 29.3507C80.1037 26.9642 83.9307 26.9724 83.7336 29.3975Z" fill="#ED5C01"/>
<path d="M38.634 0.91215C41.1626 6.2048 44.9559 12.4546 45.6935 18.3389C45.8751 20.1894 43.4324 20.2692 42.6057 19.1475C40.8472 16.876 39.972 13.8267 38.9461 11.1314C37.8326 8.1312 36.7192 5.13097 35.7389 2.05368C35.1577 0.434404 37.8811 -0.696669 38.634 0.91215Z" fill="#ED5C01"/>
<path d="M76.1538 98.4936C75.561 100.081 74.9682 101.668 74.3755 103.256C73.8388 104.633 73.3792 106.143 72.4887 107.369C72.0434 107.983 70.9432 107.463 70.9679 106.738C71.0841 105.249 71.7924 103.861 72.3291 102.484C72.8938 101.002 73.4585 99.5195 74.0232 98.0373C74.5213 96.5936 76.6238 97.155 76.1538 98.4936Z" fill="#ED5C01"/>
<path d="M65.9566 135.414C64.4909 137.95 63.1303 140.515 61.1951 142.701C60.806 143.104 60.0211 142.669 60.1615 142.144C61.1296 139.362 62.6724 136.958 64.1381 134.421C64.8289 133.31 66.6474 134.303 65.9566 135.414Z" fill="#ED5C01"/>
<path d="M40.6403 157.26C40.6121 157.365 40.6789 157.327 40.6403 157.26Z" fill="#ED5C01"/>
<path d="M42.1724 167.129C39.568 169.08 36.6723 171.911 33.6055 173.063C32.596 173.469 32.0638 172.088 32.6423 171.398C33.7045 170.161 35.2363 169.275 36.5578 168.332C38.0791 167.275 39.5338 166.255 41.0551 165.197C42.282 164.399 43.3608 166.263 42.1724 167.129Z" fill="#ED5C01"/>
<path d="M4.5086 58.6969C4.42384 60.7014 4.36715 62.6009 4.28239 64.6054C4.21524 66.3331 4.15855 68.2325 3.49917 69.8584C3.01867 71.0253 1.33665 70.5762 0.997054 69.5282C0.482429 67.8704 0.777444 65.922 0.949718 64.2223C1.11154 62.351 1.27335 60.4796 1.43517 58.6083C1.45333 56.6422 4.62143 56.5872 4.5086 58.6969Z" fill="#ED5C01"/>
<path d="M76.9681 68.8662C77.7772 70.2648 75.646 71.4977 74.8369 70.0991C74.0664 68.7672 76.1975 67.5343 76.9681 68.8662Z" fill="#ED5C01"/>
</svg>
