<svg width="64" height="64" viewBox="0 0 64 64" fill="none" xmlns="http://www.w3.org/2000/svg">
<path d="M27.3066 12.0024L27.3065 12.0021C26.2413 8.8904 22.8538 7.22943 19.741 8.29601L19.7407 8.2961C16.6281 9.3617 14.9683 12.7495 16.0339 15.8623L27.3066 12.0024ZM27.3066 12.0024C28.373 15.1147 26.7138 18.5027 23.6012 19.5694M27.3066 12.0024L23.6012 19.5694M23.6012 19.5694C20.4875 20.6344 17.1001 18.9758 16.0339 15.8624L23.6012 19.5694Z" fill="#EBE3CC" stroke="#FF7A49" stroke-width="2"/>
<path d="M12.0085 30.7273C13.733 27.973 12.9314 24.3348 10.1957 22.5637L12.0085 30.7273ZM12.0085 30.7273L11.9597 30.8027C10.1722 33.5648 6.48417 34.3551 3.72179 32.5667L3.72147 32.5665C0.960135 30.7802 0.169171 27.0915 1.95606 24.3296L2.00494 24.254C3.81048 21.5527 7.45747 20.7932 10.1953 22.5635L12.0085 30.7273Z" fill="#EBE3CC" stroke="#FF7A49" stroke-width="2"/>
<path d="M44.2585 8.29608L44.2582 8.296C41.1454 7.22943 37.7579 8.89049 36.6927 12.0021L36.6926 12.0024C35.6261 15.1148 37.2854 18.5028 40.398 19.5696L44.2585 8.29608ZM44.2585 8.29608C47.371 9.36168 49.0308 12.7497 47.9652 15.8623M44.2585 8.29608L47.9652 15.8623M47.9652 15.8623C46.8991 18.9757 43.512 20.6343 40.3985 19.5697L47.9652 15.8623Z" fill="#EBE3CC" stroke="#FF7A49" stroke-width="2"/>
<path d="M50.6665 49.6897L51.6177 49.9981L50.6664 49.6897C49.875 52.1307 48.6954 53.6247 47.3485 54.5469C45.9884 55.478 44.3655 55.8892 42.5876 55.9974C40.8028 56.106 38.927 55.9063 37.0932 55.6662C36.8021 55.628 36.5102 55.5886 36.2192 55.5492C34.7236 55.3469 33.249 55.1475 31.9996 55.1475C30.7502 55.1475 29.2756 55.3469 27.78 55.5492C27.4889 55.5886 27.197 55.628 26.9059 55.6662C25.0721 55.9063 23.1963 56.106 21.4115 55.9974C19.6336 55.8892 18.0106 55.478 16.6506 54.5469C15.3036 53.6247 14.124 52.1307 13.3326 49.6897C11.7193 44.7137 13.675 38.5424 17.542 33.514C21.4087 28.486 26.9308 24.9365 31.9996 24.9365C37.0684 24.9365 42.5905 28.486 46.4571 33.514C50.3241 38.5424 52.2798 44.7137 50.6665 49.6897Z" fill="#EBE3CC" stroke="#FF7A49" stroke-width="2"/>
<path d="M61.9955 24.254C60.19 21.5527 56.5432 20.7932 53.8054 22.5635L61.9955 24.254ZM61.9955 24.254L62.0444 24.3296C63.8314 27.0916 63.0404 30.7803 60.2791 32.5665L60.2788 32.5667C57.5163 34.3551 53.8283 33.5648 52.0408 30.8027L51.9922 30.7276C50.2676 27.9732 51.0692 24.3348 53.8051 22.5637L61.9955 24.254Z" fill="#EBE3CC" stroke="#FF7A49" stroke-width="2"/>
</svg>
